<svg width="24" height="24" viewBox="0 0 24 24" fill="none" xmlns="http://www.w3.org/2000/svg">
<path fill-rule="evenodd" clip-rule="evenodd" d="M1.25 10C1.25 6.27208 4.27208 3.25 8 3.25H16C19.7279 3.25 22.75 6.27208 22.75 10V14C22.75 17.7279 19.7279 20.75 16 20.75H8C4.27208 20.75 1.25 17.7279 1.25 14V10ZM8 4.75C5.10051 4.75 2.75 7.10051 2.75 10V14C2.75 16.8995 5.10051 19.25 8 19.25H16C18.8995 19.25 21.25 16.8995 21.25 14V10C21.25 7.10051 18.8995 4.75 16 4.75H8Z" fill="#EF466F"/>
<path fill-rule="evenodd" clip-rule="evenodd" d="M6.41438 8.53151C6.67313 8.20806 7.1451 8.15562 7.46855 8.41438L9.96977 10.4154C11.1567 11.3649 12.8433 11.3649 14.0303 10.4154L16.5315 8.41438C16.855 8.15562 17.3269 8.20806 17.5857 8.53151C17.8444 8.85495 17.792 9.32692 17.4685 9.58568L14.9673 11.5867C13.2325 12.9745 10.7675 12.9745 9.03272 11.5867L6.53151 9.58568C6.20806 9.32692 6.15562 8.85495 6.41438 8.53151Z" fill="#EF466F"/>
</svg>
