<svg width="24" height="24" viewBox="0 0 24 24" fill="none" xmlns="http://www.w3.org/2000/svg">
<path d="M4.9293 19.0711L4.18034 19.0317C4.16917 19.244 4.24863 19.4511 4.39897 19.6014C4.54932 19.7517 4.7564 19.8312 4.96872 19.82L4.9293 19.0711ZM5.00576 17.6183L5.75473 17.6578L5.00576 17.6183ZM6.38204 18.9946L6.34262 18.2457L6.38204 18.9946ZM18.5411 7.22704L8.46991 17.2982L9.53057 18.3589L19.6018 8.2877L18.5411 7.22704ZM6.70214 15.5305L16.7733 5.45927L15.7127 4.39861L5.64148 14.4698L6.70214 15.5305ZM6.34262 18.2457L4.88988 18.3221L4.96872 19.82L6.42146 19.7436L6.34262 18.2457ZM5.67827 19.1105L5.75473 17.6578L4.2568 17.5789L4.18034 19.0317L5.67827 19.1105ZM5.64148 14.4698C4.81173 15.2996 4.31848 16.4071 4.2568 17.5789L5.75473 17.6578C5.79693 16.856 6.13441 16.0982 6.70214 15.5305L5.64148 14.4698ZM8.46991 17.2982C7.90218 17.866 7.1444 18.2035 6.34262 18.2457L6.42146 19.7436C7.59329 19.6819 8.70081 19.1887 9.53057 18.3589L8.46991 17.2982ZM18.5411 5.45927C19.0293 5.94742 19.0293 6.73888 18.5411 7.22704L19.6018 8.2877C20.6757 7.21375 20.6757 5.47255 19.6018 4.39861L18.5411 5.45927ZM19.6018 4.39861C18.5278 3.32467 16.7866 3.32467 15.7127 4.39861L16.7733 5.45927C17.2615 4.97111 18.053 4.97111 18.5411 5.45927L19.6018 4.39861Z" fill="#9757D7"/>
<path d="M14.8281 6.34314L17.6566 9.17157" stroke="#9757D7" stroke-width="1.5" stroke-linecap="round"/>
</svg>
